#!OML:ASF F:\VICON\USERDATA\INSTALL\rory3\rory3.ASF
:FULLY-SPECIFIED
:DEGREES
94
root 0.18084850371537425 17.716124337029594 33.6350965993137 -0.06835404103796483 -3.3588451261001575 -6.960133673110702
lfemur -21.854332806672637 -5.7151883940314585 -9.311079102000232
ltibia 12.667783335541472
lfoot -8.277784245795294 3.7149110163636214
ltoes -6.32849894232838
rfemur 2.734379261352279 7.1826030345897 33.51538610315474
rtibia 26.747491011449707
rfoot -14.14427832541222 -6.274726195436238
rtoes 1.5783623250389507
lowerback 8.933949811489716 2.2667461426449367 5.818514753201091
upperback -0.3857432283257427 3.5903421062772236 1.8750293205719721
thorax -5.191885425498342 1.6317402069686988 -2.3106193754473416
lowerneck -15.741053344516267 -2.873905304595387 -1.741070765394967
upperneck 19.741076887640908 -3.6618443570911348 0.8766170424442266
head 8.784396257485167 -1.7465712722450537 0.06502765657469814
lclavicle -1.3858268184909202e-15 -1.8422101451965794e-15
lhumerus -35.66721053506094 8.205114809945869 79.96376441013913
lradius 22.163112655020118
lwrist 1.7036523869455267
lhand -26.400010289635002 25.58342647568589
lfingers 7.125019999999999
lthumb 0.1923969278204516 55.553390285013556
rclavicle -1.3906938104154384e-15 -1.845242619769439e-15
rhumerus -21.57090972512163 -14.523788847773181 -79.02125762499473
rradius 27.872082349133343
rwrist 0.0010122874574154395
rhand -19.008822343345994 23.325588722905117
rfingers 7.125019999999999
rthumb 7.335879434092627 -6.377314627263757
95
root 0.24840813885595397 17.629720794888254 33.58656915545197 -0.1388259539804788 -3.4562295157962084 -7.051069185148377
lfemur -21.5646688640792 -4.754125395415244 -10.227772669642938
ltibia 13.82914189145497
lfoot -9.657199680445435 2.346728922473205
ltoes -5.893600902679973
rfemur 3.9952962543516524 6.994526632955477 33.417650828605666
rtibia 28.21853361664875
rfoot -13.701691892438593 -5.8766628605672295
rtoes -0.9168297487936226
lowerback 9.133280869353637 2.3463694039168623 6.101899220969792
upperback -0.48084946966571074 3.6634653004838125 1.8510684325140792
thorax -5.5891188688383835 1.630983150467998 -2.402361370694382
lowerneck -15.884348927265883 -2.8928178984507773 -1.6866375238280418
upperneck 19.959980048840162 -3.7306810166986106 1.0026039129770927
head 8.884747063439514 -1.7637130873340365 0.0807427478705375
lclavicle -1.3875863297461603e-15 -1.843845238800095e-15
lhumerus -35.67872228115094 8.95778523047751 79.59026718228067
lradius 22.058490240888347
lwrist -0.19738387091511278
lhand -26.463057109044506 24.546442191024987
lfingers 7.125019999999999
lthumb 0.021373447022106085 54.42361876440015
rclavicle -1.3914840178835918e-15 -1.845800051989634e-15
rhumerus -21.303725183449842 -15.034863293147575 -78.9182767606286
rradius 27.991880783900477
rwrist -0.12191262120310498
rhand -19.409479072841894 23.402931037062846
rfingers 7.125019999999999
rthumb 6.916515177747234 -6.246551167974506
96
root 0.32468557534513215 17.581029683228582 33.90347509550472 -0.5954398698435939 -3.0733218353276213 -6.282555899152889
lfemur -21.508910202134544 -3.747213544505565 -12.235000027022904
ltibia 17.586917380134864
lfoot -7.934278610008656 -0.9269358944683277
ltoes -5.4864540316680745
rfemur 4.7893302903008514 6.521225662248444 32.251151162583184
rtibia 31.086680661734697
rfoot -12.461394904375952 -5.345057337384228
rtoes -2.6660939732909696
lowerback 9.093907530751503 2.283820337591186 5.472379389363614
upperback -0.32229846204257395 3.6140996618530243 1.6533607733502387
thorax -5.583113525880081 1.6160685661767 -2.1889237881440504
lowerneck -15.717205521331318 -2.9681864812135186 -1.7004447193012384
upperneck 19.927626504438177 -3.8628710068248835 0.9185536801512771
head 8.854313640677171 -1.8161469814742226 0.04675465835365078
lclavicle -1.3878635812688106e-15 -1.8441031460680703e-15
lhumerus -35.82790595565645 9.175055515571318 79.66950254175651
lradius 21.88816729975335
lwrist -2.082322963847908
lhand -26.301671344118162 24.3386046124793
lfingers 7.125019999999999
lthumb 0.20111000961417624 54.27970665018638
rclavicle -1.3874495006297183e-15 -1.8421435089762094e-15
rhumerus -21.762702653736483 -15.93274706181117 -78.46678723786796
rradius 28.144417915953454
rwrist 0.17565141220928648
rhand -19.218127190875204 23.521710050917775
rfingers 7.125019999999999
rthumb 6.963221366706888 -6.139486110876412
97
root 0.40370854556835956 17.595429559284902 34.663881289460264 -1.3527974641541671 -3.002200750309777 -5.57855841063513
lfemur -21.138662261029857 -3.882164428665704 -13.545052204823113
ltibia 21.789809646683814
lfoot -6.290300107039481 -3.240748804746421
ltoes -6.330511014418106
rfemur 4.918865096288203 5.8589921318015525 30.906978317920704
rtibia 35.195514211978036
rfoot -9.540023637228137 -4.312669807560512
rtoes -2.341546129711622
lowerback 9.334465212094939 2.312535407002969 4.880905871940039
upperback -0.1981034186494753 3.5311233580746073 1.492159147197839
thorax -5.681253425931044 1.6015505035333684 -1.9549864187365869
lowerneck -15.440637054171994 -3.045026484661718 -1.7457483951192232
upperneck 20.090366483718515 -4.023046861386516 1.057083368059974
head 8.886687003161965 -1.8647172628458875 0.09077065289791364
lclavicle -1.3865198991892205e-15 -1.842854457523204e-15
lhumerus -36.13936068499327 9.585763199141038 79.63058944549641
lradius 22.17520739695905
lwrist -2.76487243000997
lhand -26.75945434577216 23.574438559147758
lfingers 7.125019999999999
lthumb -0.39907396078608537 53.223932809074476
rclavicle -1.3889767541384398e-15 -1.8434034243691966e-15
rhumerus -22.49881332391958 -17.434376296777067 -77.66415612281517
rradius 27.560370170526785
rwrist 0.33594623132375556
rhand -18.937847968876603 23.44660903398046
rfingers 7.125019999999999
rthumb 7.255304654668757 -6.318184462201625
98
root 0.4748445849631902 17.655436120046545 35.259150837070436 -2.143337609475721 -1.9245073393816832 -3.882732848182659
lfemur -19.273805429626965 -3.711558328965504 -16.290534488389373
ltibia 23.681731872287855
lfoot -4.741090099112352 -5.356589058761822
ltoes -5.535865504826688
rfemur 3.1410079584731836 3.84020964748305 28.02974760946555
rtibia 41.592894544295895
rfoot -4.725312410367056 -3.569739320276501
rtoes -0.04842078886237644
lowerback 9.122139728364179 2.001752017097625 3.0446081492326695
upperback -0.0519010264301045 3.017009897417631 1.0067841026543967
thorax -5.729487567131704 1.4002426339446263 -1.2306790566957273
lowerneck -15.314002802404984 -3.094490848694331 -1.7877067388615646
upperneck 20.347744067716324 -4.1571282661210915 1.0799222323299127
head 8.933172327344732 -1.9210349712473334 0.11129820532328855
lclavicle -1.3884718735378648e-15 -1.8446686521537543e-15
lhumerus -36.01745046759685 10.031938641605965 79.42217687850737
lradius 22.00498638255685
lwrist -3.2955727385399567
lhand -25.64414967162271 24.303572068464895
lfingers 7.125019999999999
lthumb 0.6789046147644959 53.87513879164103
rclavicle -1.3903575898832044e-15 -1.8448513651468785e-15
rhumerus -23.79993258509011 -19.04669127374195 -76.78330148818938
rradius 27.091371812842276
rwrist 0.8191103727153504
rhand -19.240117634984184 23.563600670434386
rfingers 7.125019999999999
rthumb 6.985766236575892 -5.889195375393514
99
root 0.560706325884558 17.693414953794672 36.45779657102858 -2.703920746620231 -1.7057145781599856 -3.359260103177224
lfemur -17.380054734646812 -2.644551672262119 -17.571443917021863
ltibia 25.908767641035446
lfoot -6.427276510567838 -5.30622754558169
ltoes -2.7681394285863967
rfemur -0.17790163672138526 2.1461557164404046 26.247069440668724
rtibia 49.074786437817224
rfoot 1.3716847856881937 -3.2125242881317715
rtoes 3.5077300643384257
lowerback 9.121483024292022 1.8955214220259275 2.7542328834390517
upperback -0.14336870833210694 2.8650770764134976 0.8828590934863839
thorax -5.8120843855314455 1.3426503846396203 -1.1091085128412577
lowerneck -15.103734799529686 -3.171223546768444 -1.8559103372291654
upperneck 20.66145967276381 -4.291416050675858 1.0647463343765813
head 9.037904239551187 -1.969173642086749 0.11960324770937925
lclavicle -1.3873996976565365e-15 -1.8436726090529462e-15
lhumerus -36.07491443985121 10.030776557868219 79.4102642510238
lradius 22.345103301701037
lwrist -1.4076558311267644
lhand -25.41060066236836 23.772766292051067
lfingers 7.125019999999999
lthumb 1.0330521519390867 53.74102310168783
rclavicle -1.3906778716133434e-15 -1.8452646954181948e-15
rhumerus -25.62953033445377 -20.543353523773483 -76.10788482389951
rradius 26.38024158136525
rwrist 1.9066478914810103
rhand -18.993406823220933 23.400688722255566
rfingers 7.125019999999999
rthumb 7.247193688730921 -6.207863959672949
100
root 0.6400634056648647 17.77559918170497 36.97133460113711 -3.2396298523897253 -2.7472006953502914 -2.1295753888308946
lfemur -15.098780764848794 -2.409562363706595 -19.346112233975088
ltibia 26.85823735578731
lfoot -8.674731277125188 -3.716610579244235
ltoes -0.47362679249357864
rfemur -5.261502033428522 3.0368196800061753 24.035361967066372
rtibia 56.862037684951446
rfoot 6.772885129139745 -3.5347627562526047
rtoes 10.548537259642718
lowerback 9.85724460718577 2.124920517431973 1.5063057430689912
upperback -0.1660449735416675 2.9351853391427496 0.4526379623898038
thorax -6.259684102280303 1.3661419934295043 -0.670891278617423
lowerneck -15.227081644905281 -3.123989795141385 -1.9126235160656768
upperneck 20.78772014285331 -4.229054881795692 1.1542989532792092
head 9.098486598964726 -1.9267263137749038 0.17226869681568924
lclavicle -1.387767188619359e-15 -1.8440144330326047e-15
lhumerus -35.8255484742439 9.16587766228406 79.77524626362045
lradius 23.99108485227242
lwrist 2.318968299959616
lhand -26.940717676127466 21.464199490504527
lfingers 7.125019999999999
lthumb -0.3274430827094388 51.354845983432824
rclavicle -1.3915788241244887e-15 -1.8459102864319837e-15
rhumerus -26.80076970027499 -21.61865467545621 -75.92910520814414
rradius 25.861819135061285
rwrist 2.222028901058049
rhand -18.65123719934621 23.192926898560245
rfingers 7.125019999999999
rthumb 7.574564899125057 -6.552092185845765
